<svg width="124" height="19" fill="none" xmlns="http://www.w3.org/2000/svg"><path d="M15.457 5.613a.49.49 0 0 0 .012.094.436.436 0 0 1 .011.106.579.579 0 0 1-.199.433.583.583 0 0 1-.422.188.594.594 0 0 1-.351-.118.668.668 0 0 1-.223-.316c-.101-.297-.2-.613-.293-.95-.094-.343-.18-.679-.258-1.007l-.199-.926c-.062-.289-.11-.535-.14-.738-.446.023-.954.043-1.524.058-.57.008-1.184.012-1.84.012l-.386 14.473c.64.023 1.257.07 1.851.14a.548.548 0 0 1 .399.2c.101.11.152.242.152.398a.56.56 0 0 1-.2.457.577.577 0 0 1-.398.176h-.07a26.04 26.04 0 0 0-1.875-.164 48.867 48.867 0 0 0-3.691 0c-.602.031-1.204.086-1.805.164h-.07a.591.591 0 0 1-.446-.2.643.643 0 0 1-.176-.433c0-.156.051-.289.153-.398a.612.612 0 0 1 .398-.2 23.4 23.4 0 0 1 1.77-.14l.27-14.543c-.665-.024-1.29-.05-1.876-.082a92.483 92.483 0 0 1-1.558-.117l-.176.773a23.46 23.46 0 0 1-.223.973c-.078.344-.16.695-.246 1.054a19.84 19.84 0 0 1-.27.997.636.636 0 0 1-.222.328.528.528 0 0 1-.352.129.584.584 0 0 1-.445-.188.643.643 0 0 1-.176-.434V5.73a.16.16 0 0 1 .024-.093c.117-.414.234-.867.351-1.36.117-.492.223-.953.317-1.382a59.488 59.488 0 0 0 .34-1.524.669.669 0 0 1 .21-.351.607.607 0 0 1 .387-.13h.094c.406.055.898.102 1.477.141.585.04 1.214.074 1.886.106.68.023 1.383.043 2.11.058a108.927 108.927 0 0 0 4.488 0c.719-.023 1.32-.054 1.805-.093h.046c.141 0 .27.05.387.152.117.094.188.21.211.351 0 .008.012.075.035.2l.094.504c.04.21.086.453.14.726l.2.856c.07.289.144.586.223.89.085.297.175.574.269.832Zm13.37 6.574a2.06 2.06 0 0 1-.82-.164 2.119 2.119 0 0 1-1.102-1.101 2.08 2.08 0 0 1-.164-.82 2 2 0 0 1 .164-.809c.11-.258.258-.48.445-.668a2.03 2.03 0 0 1 .656-.457 1.96 1.96 0 0 1 .82-.176c.04 0 .075.004.106.012.04.008.078.012.117.012a2.109 2.109 0 0 0-.715-.352 3.01 3.01 0 0 0-.925-.129c-.446 0-.832.094-1.16.281-.328.18-.61.41-.844.692-.227.273-.41.574-.55.902-.142.32-.255.625-.34.914a6.438 6.438 0 0 0-.165.727c-.023.203-.035.32-.035.351l-.023 5.204c.273.023.546.058.82.105.281.047.566.094.855.14a.68.68 0 0 1 .364.235.58.58 0 0 1 .14.387.556.556 0 0 1-.199.433.654.654 0 0 1-.422.164h-.117a24.723 24.723 0 0 0-1.805-.27 15.27 15.27 0 0 0-3.387 0 25.46 25.46 0 0 0-1.792.27h-.118a.565.565 0 0 1-.433-.175.624.624 0 0 1-.164-.422c0-.149.043-.278.129-.387a.615.615 0 0 1 .351-.234l.82-.141c.274-.047.544-.082.81-.105V7.874a18.768 18.768 0 0 1-1.243-.094c-.336-.039-.523-.066-.563-.082a.59.59 0 0 1-.386-.187.638.638 0 0 1-.14-.41.56.56 0 0 1 .198-.457.686.686 0 0 1 .422-.165h.082c.008.008.098.024.27.047l.668.059a25.084 25.084 0 0 0 2.027.082c.375 0 .742-.012 1.102-.035.359-.024.691-.067.996-.13.015-.015.054-.023.117-.023.18 0 .328.067.445.2a.601.601 0 0 1 .176.422v.843a4.188 4.188 0 0 1 1.266-1.16c.515-.312 1.125-.469 1.828-.469.531.016 1.015.11 1.453.282.437.164.812.394 1.125.691.32.29.566.64.738 1.055.18.406.27.863.27 1.37 0 .321-.051.63-.153.927a2.622 2.622 0 0 1-.433.796 2.18 2.18 0 0 1-.692.551c-.265.133-.562.2-.89.2Zm15.455-.374v-.2c0-.586-.062-1.129-.187-1.629a3.867 3.867 0 0 0-.598-1.324c-.265-.39-.61-.71-1.031-.96-.422-.25-.93-.419-1.523-.505-.415.047-.774.16-1.079.34a2.96 2.96 0 0 0-.785.668c-.21.258-.386.55-.527.879-.14.328-.254.668-.34 1.02a9.363 9.363 0 0 0-.176 1.043c-.039.343-.062.668-.07.972.125.04.281.082.469.13.195.046.414.093.656.14.242.039.504.074.785.105.29.024.59.035.902.035.665 0 1.286-.062 1.864-.187a8.224 8.224 0 0 0 1.64-.527Zm1.196.457c-.024.203-.133.378-.328.527a3.1 3.1 0 0 1-.739.398c-.297.11-.625.203-.984.282a17.518 17.518 0 0 1-1.992.281c-.29.015-.516.023-.68.023a9.96 9.96 0 0 1-1.582-.117 11.79 11.79 0 0 1-1.184-.246 8.1 8.1 0 0 0 .27 1.43c.133.468.324.89.574 1.265.25.367.563.668.938.903.375.226.828.34 1.359.34.195 0 .418-.024.668-.07.25-.056.496-.13.738-.224.242-.101.465-.218.668-.351.203-.14.364-.297.48-.469a.61.61 0 0 1 .481-.234.58.58 0 0 1 .434.199.583.583 0 0 1 .187.422.5.5 0 0 1-.152.387c-.188.289-.45.535-.785.738-.336.203-.7.367-1.09.492-.39.133-.785.227-1.184.281a7.083 7.083 0 0 1-1.09.094 6.716 6.716 0 0 1-2.613-.504 6.478 6.478 0 0 1-2.097-1.36 6.428 6.428 0 0 1-1.407-2.038 6.338 6.338 0 0 1-.504-2.531c0-.993.149-1.876.446-2.649.297-.781.718-1.437 1.265-1.969a5.275 5.275 0 0 1 1.992-1.218c.782-.282 1.66-.422 2.637-.422.922.039 1.715.195 2.38.468.671.274 1.222.653 1.651 1.137.43.485.747 1.07.95 1.758.21.68.316 1.445.316 2.297 0 .195-.004.351-.012.469a3.97 3.97 0 0 0-.011.21Zm17.389-5.883a.59.59 0 0 1-.129.375.64.64 0 0 1-.352.222c-.265.063-.515.114-.75.153-.234.031-.464.058-.691.082a21.494 21.494 0 0 1-.809 2.707 35.606 35.606 0 0 1-1.207 2.918c-.46.984-.968 1.96-1.523 2.93a32.986 32.986 0 0 1-1.734 2.753.657.657 0 0 1-.2.188.44.44 0 0 1-.258.082.666.666 0 0 1-.48-.2 20.417 20.417 0 0 1-1.558-1.84 21.052 21.052 0 0 1-1.583-2.484 24.085 24.085 0 0 1-1.406-3.199 24.834 24.834 0 0 1-1.02-3.949 11.558 11.558 0 0 0-.515-.059 3.598 3.598 0 0 1-.492-.082.64.64 0 0 1-.387-.199.592.592 0 0 1-.14-.398c0-.203.07-.356.21-.457a.674.674 0 0 1 .41-.164c.016 0 .028.004.036.011a.13.13 0 0 0 .058.012c.508.07 1 .129 1.477.176a18.095 18.095 0 0 0 2.871 0 27.17 27.17 0 0 0 1.395-.176c.023 0 .039-.004.046-.012a.104.104 0 0 1 .047-.011c.18 0 .328.062.446.187a.59.59 0 0 1 .175.434c0 .14-.047.27-.14.386a.562.562 0 0 1-.364.211c-.335.07-.68.118-1.03.141.07.352.19.82.362 1.406s.403 1.246.692 1.98c.172.438.36.864.562 1.278.211.414.418.805.621 1.172.211.36.41.687.598.984.196.297.363.551.504.762a36.44 36.44 0 0 0 .996-1.922c.313-.656.598-1.3.856-1.933.265-.641.5-1.266.703-1.875.203-.61.375-1.196.515-1.758-.226-.024-.46-.051-.703-.082-.242-.04-.496-.09-.761-.153a.563.563 0 0 1-.364-.21.605.605 0 0 1-.14-.387.57.57 0 0 1 .199-.446.66.66 0 0 1 .422-.175.13.13 0 0 1 .058.011.13.13 0 0 0 .059.012c.367.07.7.125.996.164.297.031.59.047.879.047.289 0 .574-.016.855-.047.29-.039.598-.094.926-.164a.221.221 0 0 0 .07-.012.22.22 0 0 1 .07-.011c.173 0 .317.066.434.199a.583.583 0 0 1 .188.422Zm8.788 11.777h-.118a38.358 38.358 0 0 0-.855-.14 8.895 8.895 0 0 0-.738-.083 10.426 10.426 0 0 0-.715-.046 23.004 23.004 0 0 0-.762-.012c-.555 0-1.094.023-1.617.07-.524.04-1.098.117-1.723.235h-.117c-.195 0-.344-.063-.445-.188a.639.639 0 0 1-.153-.434.59.59 0 0 1 .13-.375.638.638 0 0 1 .35-.222c.29-.047.552-.082.786-.106.234-.031.484-.058.75-.082V2.473a20.3 20.3 0 0 1-1.066-.106 3.507 3.507 0 0 0-.375-.058.617.617 0 0 1-.387-.211.621.621 0 0 1-.14-.399c0-.203.07-.355.21-.457a.674.674 0 0 1 .41-.164h.07c.008 0 .079.012.212.035.132.016.312.04.539.07.234.024.507.047.82.07a19.841 19.841 0 0 0 2.145-.011c.359-.031.687-.078.984-.14.023-.016.066-.024.129-.024.18 0 .328.067.445.2a.601.601 0 0 1 .176.421l-.024 15.082c.133.016.243.032.329.047.093.008.18.02.257.035.086.008.172.02.258.035.094.008.211.024.352.047a.7.7 0 0 1 .363.223.56.56 0 0 1 .14.375c0 .18-.066.328-.199.445a.601.601 0 0 1-.421.176Zm11.436-4.266a6.694 6.694 0 0 1-.047-.843h-.434c-.312 0-.683.023-1.113.07-.422.047-.86.121-1.313.223a9.51 9.51 0 0 0-1.347.41 5.368 5.368 0 0 0-1.196.61 3.107 3.107 0 0 0-.855.831c-.211.32-.317.688-.317 1.102 0 .219.051.406.153.562.11.157.242.285.398.387.164.094.344.164.54.21.195.04.382.06.562.06a3.94 3.94 0 0 0 1.57-.317c.5-.219.961-.5 1.383-.844.422-.351.8-.742 1.137-1.172.336-.43.629-.859.879-1.289Zm5.613 4.055h-.047a3.513 3.513 0 0 0-.41-.023h-.41c-.735 0-1.442.047-2.121.14-.672.094-1.348.239-2.028.434a.221.221 0 0 0-.07.012.555.555 0 0 1-.54-.2.64.64 0 0 1-.163-.41v-.093c0-.016.02-.172.058-.47.04-.304.079-.726.118-1.265-.336.375-.696.727-1.078 1.055-.376.32-.774.601-1.196.844a6.223 6.223 0 0 1-1.289.55 4.55 4.55 0 0 1-1.383.211c-.375 0-.738-.058-1.09-.175a2.957 2.957 0 0 1-.937-.481 2.518 2.518 0 0 1-.645-.762 2.202 2.202 0 0 1-.234-1.02c0-.585.125-1.1.375-1.546a4.076 4.076 0 0 1 1.008-1.16 5.712 5.712 0 0 1 1.406-.832 10.34 10.34 0 0 1 1.617-.54 11.09 11.09 0 0 1 1.594-.292 11.54 11.54 0 0 1 1.371-.094h.281a3.9 3.9 0 0 0-.257-1.395 3.8 3.8 0 0 0-.704-1.207 3.404 3.404 0 0 0-1.066-.843 2.89 2.89 0 0 0-1.371-.329 2.07 2.07 0 0 0-1.078.317 3.588 3.588 0 0 0-.938.785c-.273.32-.496.68-.668 1.078a3.037 3.037 0 0 0-.246 1.16.5.5 0 0 1-.199.399.652.652 0 0 1-.422.152.608.608 0 0 1-.445-.187.622.622 0 0 1-.188-.434c0-.375.067-.766.2-1.172.132-.414.324-.816.574-1.207.258-.398.566-.773.926-1.125.367-.351.78-.66 1.242-.926a6.5 6.5 0 0 1 3.305-.879c.874 0 1.62.137 2.238.41a4.394 4.394 0 0 1 1.558 1.114c.422.469.754 1.012.996 1.629.243.617.426 1.27.551 1.957.125.687.203 1.387.235 2.098a37.222 37.222 0 0 1 .047 2.882c-.008.235-.012.43-.012.586.117 0 .234-.004.351-.012a5.837 5.837 0 0 1 .774 0c.148.008.293.012.433.012a.59.59 0 0 1 .41.2c.11.117.165.261.165.433a.615.615 0 0 1-.176.434.535.535 0 0 1-.422.187Zm17.413-.48a.595.595 0 0 1-.211.398.652.652 0 0 1-.422.152h-.047a18.43 18.43 0 0 0-1.09-.082 15.028 15.028 0 0 0-1.02-.035c-.492 0-.964.024-1.417.07a17.669 17.669 0 0 0-1.372.176.1.1 0 0 1-.046.012.595.595 0 0 1-.434-.187.622.622 0 0 1-.188-.434.605.605 0 0 1 .504-.598c.328-.062.657-.11.985-.14.336-.04.679-.075 1.031-.106.07-.242.145-.57.223-.984.078-.414.148-.86.211-1.336.07-.477.125-.957.164-1.441.047-.485.07-.918.07-1.301 0-.399-.023-.832-.07-1.301a4.739 4.739 0 0 0-.293-1.313 2.608 2.608 0 0 0-.657-1.03c-.281-.274-.66-.411-1.136-.411-.539 0-1.04.133-1.5.398-.461.266-.86.606-1.196 1.02a5.14 5.14 0 0 0-.785 1.348 3.977 3.977 0 0 0-.281 1.418v.023l-.023 5.156.41.047c.132.008.265.024.398.047a.569.569 0 0 1 .387.2c.11.109.164.241.164.398a.59.59 0 0 1-.2.445.583.583 0 0 1-.421.188.079.079 0 0 1-.07-.036c-.47-.047-.95-.093-1.442-.14-.484-.047-.996-.07-1.535-.07-.484 0-.996.023-1.535.07-.531.054-1.102.136-1.711.246a.26.26 0 0 1-.117.023.534.534 0 0 1-.434-.199.668.668 0 0 1-.164-.434c0-.14.043-.27.129-.386a.52.52 0 0 1 .352-.211 8.29 8.29 0 0 1 .831-.14c.266-.04.532-.071.797-.095V7.945c-.492-.023-.906-.05-1.242-.082-.328-.039-.511-.066-.55-.082a.569.569 0 0 1-.387-.199.638.638 0 0 1-.14-.41c0-.188.066-.336.198-.445a.63.63 0 0 1 .422-.176c.031 0 .055.008.07.023l.27.024.668.058a24.768 24.768 0 0 0 2.04.082c.374 0 .741-.008 1.1-.023a5.966 5.966 0 0 0 1.032-.152.22.22 0 0 1 .07-.012c.18 0 .328.066.445.199a.583.583 0 0 1 .188.422v1.207c.453-.664.992-1.164 1.617-1.5.633-.344 1.348-.516 2.145-.516.468 0 .875.082 1.218.246.352.157.653.371.903.645.258.273.465.59.621.95.164.35.293.722.387 1.112.101.391.168.79.199 1.196.039.398.058.773.058 1.125 0 .39-.019.82-.058 1.289-.039.46-.09.922-.153 1.383-.054.46-.121.898-.199 1.312-.07.414-.14.766-.211 1.055l.914.047c.321.015.645.043.973.082a.52.52 0 0 1 .41.234.697.697 0 0 1 .153.434Zm11.307-8.309a2.519 2.519 0 0 0-.528-.914 3.216 3.216 0 0 0-.808-.645 3.416 3.416 0 0 0-.961-.375 4.29 4.29 0 0 0-1.043-.128c-.531 0-1.004.085-1.418.257a3.478 3.478 0 0 0-1.09.68 4.217 4.217 0 0 0-.808.996 6.36 6.36 0 0 0-.54 1.195c-.14.415-.242.84-.304 1.278a8.88 8.88 0 0 0-.094 1.265 6.47 6.47 0 0 0 .234 1.653c.157.523.383.992.68 1.406a3.68 3.68 0 0 0 1.102.984c.437.243.941.364 1.511.364a2.67 2.67 0 0 0 1.395-.364c.406-.25.762-.562 1.066-.937.313-.375.575-.785.785-1.23.211-.454.379-.883.504-1.29.125-.414.211-.777.258-1.09.055-.32.074-.53.059-.632V9.164Zm5.59 8.79h-.047a14.87 14.87 0 0 0-1.137-.048c-.5 0-.969.024-1.406.07a20 20 0 0 0-1.149.153 19.183 19.183 0 0 0-1.066.234.146.146 0 0 1-.082.024h-.082a.567.567 0 0 1-.445-.2.598.598 0 0 1-.176-.421v-1.993c-.18.375-.41.723-.692 1.043a4.68 4.68 0 0 1-.925.832 4.385 4.385 0 0 1-1.137.551c-.406.14-.832.211-1.277.211-.75 0-1.418-.152-2.004-.457a4.729 4.729 0 0 1-1.5-1.219 5.668 5.668 0 0 1-.938-1.793 7.203 7.203 0 0 1-.34-2.144c0-.586.047-1.16.141-1.723.101-.57.254-1.11.457-1.617a7.29 7.29 0 0 1 .75-1.43c.305-.437.66-.812 1.066-1.125.407-.32.864-.57 1.371-.75a5.035 5.035 0 0 1 1.688-.27c.68 0 1.301.102 1.863.306a4.728 4.728 0 0 1 1.477.843V2.31a18.734 18.734 0 0 1-1.231-.094 10.46 10.46 0 0 0-.55-.059.664.664 0 0 1-.399-.21.61.61 0 0 1-.152-.41c0-.173.062-.313.187-.423a.645.645 0 0 1 .434-.175h.07c.008 0 .098.011.27.035l.668.058c.281.024.601.047.961.07.359.016.726.024 1.101.024.367 0 .727-.012 1.078-.035a6.73 6.73 0 0 0 .985-.153h.152a.55.55 0 0 1 .434.188.584.584 0 0 1 .164.41v15.14h.234c.203 0 .406.005.609.012.211 0 .418.012.621.036a.593.593 0 0 1 .411.199.584.584 0 0 1 .164.41c0 .188-.071.34-.211.457a.642.642 0 0 1-.41.164Z" fill="#000"/></svg>